<svg xmlns="http://www.w3.org/2000/svg" xmlns:xlink="http://www.w3.org/1999/xlink" viewBox="0 0 320 320"><defs><style>.a{fill:url(#a);}.b{fill:#e65100;}.c{fill:#ffcc80;opacity:0.9;}.d{filter:url(#b);}</style><radialGradient id="a" cx="0.5" cy="0.5" r="0.5" gradientUnits="objectBoundingBox"><stop offset="0" stop-color="#ffcc80" stop-opacity="0.8"/><stop offset="1" stop-color="#ffcc80" stop-opacity="0"/></radialGradient><filter id="b" x="72" y="62" width="186" height="186" filterUnits="userSpaceOnUse"><feOffset dx="-8" dy="8" input="SourceAlpha"/><feGaussianBlur stdDeviation="6" result="c"/><feFlood flood-opacity="0.102"/><feComposite operator="in" in2="c"/><feComposite in="SourceGraphic"/></filter></defs><g transform="translate(-560 -210)"><circle class="a" cx="160" cy="160" r="160" transform="translate(560 210)"/><g transform="translate(0 32)"><path class="b" d="M10,0H90a10,10,0,0,1,10,10V90a10,10,0,0,1-10,10h0A90,90,0,0,1,0,10v0A10,10,0,0,1,10,0Z" transform="translate(633 325)"/><g class="d" transform="matrix(1, 0, 0, 1, 560, 178)"><circle class="c" cx="75" cy="75" r="75" transform="translate(98 72)"/></g></g></g></svg>